# Blender v2.81 (sub 16) OBJ File: ''
# www.blender.org
o Cube.001
v 0.232406 -0.745504 1.477731
v 0.232406 -0.745504 2.843098
v -0.227475 -0.745504 2.843098
v -0.227475 -0.745504 1.477731
v 0.232407 1.119982 1.133819
v -0.227475 1.119982 1.133818
v -0.227475 1.119982 1.602813
v 0.232406 1.119982 1.602814
v -0.227403 1.104268 0.408501
v -0.227403 0.507336 0.901477
v -0.227403 1.119377 0.901477
v 0.232406 -0.340316 2.843098
v -0.227475 -0.340316 2.843098
v -0.227475 -0.294496 2.297937
v -0.227475 -0.305193 1.133818
v 0.232407 -0.305193 1.133819
v 0.232406 -1.216630 1.133818
v -0.227475 -1.216630 1.133818
v 0.232407 -0.294496 2.297937
v 0.232406 -1.222569 1.497195
v -0.227475 -1.222569 1.497194
v -0.227403 -0.075523 -0.037620
v 0.223704 -0.075523 -0.037620
v 0.223704 -0.731178 -0.037620
v -0.227403 -0.731178 -0.037620
v 0.223704 0.551492 0.384487
v 0.223704 0.634134 -0.037620
v 0.223704 1.119377 -0.037620
v 0.223704 1.104269 0.408501
v 0.223704 -0.129772 0.901477
v -0.227403 -0.129772 0.901477
v -0.227403 -0.731178 0.901477
v 0.223704 -0.731178 0.901477
v 0.223704 1.119377 0.901477
v -0.227403 1.119377 -0.037620
v 0.223704 0.507336 0.901477
v -0.227403 0.551492 0.384487
v -0.227403 0.634134 -0.037620
v 0.223704 -0.066768 0.398575
v -0.227403 -0.066768 0.398575
v 0.223704 -0.684649 0.389681
v -0.227403 -0.684649 0.389681
vt 0.893995 0.393841
vt 0.893995 0.211404
vt 1.000000 0.211404
vt 1.000000 0.393841
vt 0.787991 0.000000
vt 0.893995 0.000000
vt 0.893995 0.063476
vt 0.787991 0.063476
vt 0.113633 0.523837
vt 0.000000 0.656466
vt 0.000000 0.520480
vt 0.787991 0.488653
vt 0.893995 0.488653
vt 0.268334 0.206204
vt 0.000000 0.203827
vt 0.079273 0.105997
vt 1.000000 0.000000
vt 1.000000 0.161796
vt 0.893996 0.161796
vt 0.893995 0.000000
vt 0.787991 0.560049
vt 0.893995 0.560049
vt 0.432931 0.927121
vt 0.432931 0.520480
vt 0.538936 0.520480
vt 0.538935 0.927122
vt 0.785968 0.957593
vt 0.785968 0.801920
vt 0.891973 0.801920
vt 0.891973 0.957593
vt 1.000000 0.211404
vt 0.893996 0.211404
vt 0.732858 1.000000
vt 0.642917 1.000000
vt 0.642917 0.897821
vt 0.732858 0.897821
vt 0.787991 0.560049
vt 0.891973 0.560049
vt 0.891973 0.676440
vt 0.787991 0.676440
vt 0.313763 0.646655
vt 0.216466 0.628294
vt 0.216466 0.520480
vt 0.319298 0.523837
vt 0.642917 0.626450
vt 0.538936 0.626450
vt 0.538936 0.520480
vt 0.642917 0.520480
vt 0.787991 0.801920
vt 0.891973 0.801920
vt 0.891973 0.687152
vt 0.891973 0.560049
vt 0.995955 0.560049
vt 0.995955 0.687152
vt 0.995955 0.794996
vt 0.891973 0.794996
vt 0.995955 0.966832
vt 0.891973 0.966832
vt 0.891973 0.794996
vt 0.995955 0.794996
vt 0.642917 0.910615
vt 0.538936 0.910615
vt 0.538936 0.816464
vt 0.642917 0.816464
vt 0.642917 0.520480
vt 0.746899 0.520480
vt 0.746899 0.606619
vt 0.642917 0.606619
vt 0.746899 0.789325
vt 0.642917 0.789325
vt 0.746899 0.897821
vt 0.642917 0.897821
vt 0.893995 0.393841
vt 0.997977 0.393841
vt 0.997977 0.559005
vt 0.893995 0.559005
vt 0.432931 0.520480
vt 0.432931 0.656466
vt 0.117971 0.921308
vt 0.216465 0.785969
vt 0.216466 0.931646
vt 0.216466 0.931646
vt 0.216466 0.785969
vt 0.314960 0.921308
vt 0.519657 0.206204
vt 0.787991 0.520480
vt 0.679886 0.520480
vt 0.432931 0.931646
vt 0.000000 0.520480
vt 0.108105 0.520480
vt 0.119168 0.646656
vt 0.115921 0.784024
vt 0.000000 0.798022
vt 0.393996 0.196023
vt 0.393996 0.105997
vt 0.317010 0.784024
vt 0.432931 0.798022
vt 0.787991 0.203827
vt 0.708718 0.105997
vt 0.704231 0.000000
vt 0.787991 0.001320
vt 0.393996 0.105997
vt 0.393996 0.196024
vt 0.083760 0.000000
vt 0.000000 0.001320
vt 0.216465 0.628294
vt 0.000000 0.931646
vt 0.216465 0.520480
vn 0.0000 -1.0000 -0.0000
vn 0.0000 1.0000 0.0000
vn -1.0000 0.0000 0.0000
vn -0.0000 0.6474 0.7622
vn 0.0000 0.0000 -1.0000
vn 0.0000 -0.0000 1.0000
vn 0.0000 -0.6355 -0.7721
vn 0.0000 1.0000 -0.0092
vn 0.0000 -0.9999 -0.0163
vn -0.0000 0.0408 0.9992
vn 1.0000 0.0000 0.0000
vn 0.0000 -0.6368 -0.7711
vn 0.0000 -0.0434 0.9991
vn 0.0000 0.6045 0.7966
vn 0.0000 -0.5284 -0.8490
vn 0.0000 0.0144 -0.9999
vn 0.0000 0.5743 0.8187
s off
f 1/1/1 2/2/1 3/3/1 4/4/1
f 5/5/2 6/6/2 7/7/2 8/8/2
f 9/9/3 10/10/3 11/11/3
f 12/12/4 8/8/4 7/7/4 13/13/4
f 14/14/3 15/15/3 4/16/3
f 16/17/5 17/18/5 18/19/5 15/20/5
f 2/21/6 12/12/6 13/13/6 3/22/6
f 5/23/7 19/24/7 14/25/7 6/26/7
f 19/27/8 16/28/8 15/29/8 14/30/8
f 17/18/9 20/31/9 21/32/9 18/19/9
f 20/33/10 1/34/10 4/35/10 21/36/10
f 22/37/5 23/38/5 24/39/5 25/40/5
f 26/41/11 27/42/11 28/43/11 29/44/11
f 30/45/6 31/46/6 32/47/6 33/48/6
f 32/49/1 25/40/1 24/39/1 33/50/1
f 34/51/2 28/52/2 35/53/2 11/54/2
f 34/51/6 11/54/6 10/55/6 36/56/6
f 36/57/12 10/58/12 9/59/12 29/60/12
f 29/61/13 9/62/13 37/63/13 26/64/13
f 26/64/14 37/63/14 31/46/14 30/45/14
f 35/65/5 28/66/5 27/67/5 38/68/5
f 38/68/15 27/67/15 39/69/15 40/70/15
f 40/70/16 39/69/16 41/71/16 42/72/16
f 42/73/17 41/74/17 23/75/17 22/76/17
f 34/77/11 36/78/11 29/44/11
f 42/79/3 22/80/3 25/81/3
f 24/82/11 23/83/11 41/84/11
f 19/85/11 5/86/11 8/87/11
f 28/43/11 34/77/11 29/44/11
f 33/88/11 24/82/11 41/84/11
f 6/89/3 14/14/3 7/90/3
f 37/91/3 40/92/3 31/93/3
f 13/94/3 14/14/3 4/16/3 3/95/3
f 26/41/11 39/96/11 27/42/11
f 39/96/11 26/41/11 30/97/11
f 16/98/11 1/99/11 20/100/11 17/101/11
f 14/14/3 13/94/3 7/90/3
f 2/102/11 1/99/11 19/85/11 12/103/11
f 16/98/11 19/85/11 1/99/11
f 39/96/11 30/97/11 33/88/11 41/84/11
f 19/85/11 8/87/11 12/103/11
f 21/104/3 4/16/3 15/15/3 18/105/3
f 40/92/3 37/91/3 38/106/3
f 42/79/3 25/81/3 32/107/3
f 9/9/3 11/11/3 35/108/3
f 32/107/3 31/93/3 40/92/3 42/79/3
f 35/108/3 38/106/3 37/91/3 9/9/3
